<?xml version="1.0" ?><!DOCTYPE svg  PUBLIC '-//W3C//DTD SVG 1.1//EN'  'http://www.w3.org/Graphics/SVG/1.1/DTD/svg11.dtd'><svg enable-background="new 0 0 24 24" height="24px" id="Layer_1" version="1.1" viewBox="0 0 24 24" width="24px" xml:space="preserve" xmlns="http://www.w3.org/2000/svg" xmlns:xlink="http://www.w3.org/1999/xlink"><g><path d="M12,0v12h12C24,5.4,18.6,0,12,0z M13,2.1c4.7,0.5,8.5,4.2,8.9,8.9H13V2.1z"/><path d="M11,0.1C4.8,0.6,0,5.7,0,12c0,6.6,5.4,12,12,12c6.3,0,11.4-4.8,11.9-11H11V0.1z M21.8,14c-0.9,4.6-5,8-9.8,8   C6.5,22,2,17.5,2,12c0-4.8,3.4-8.9,8-9.8V14H21.8z"/></g></svg>