<!--?xml version="1.0" standalone="no"?-->

<svg version="1.0" xmlns="http://www.w3.org/2000/svg" width="300.000000pt" height="300.000000pt" viewBox="0 0 300.000000 300.000000" preserveAspectRatio="xMidYMid meet">
<g transform="translate(0.000000,300.000000) scale(0.100000,-0.100000)" fill="#343434" stroke="none">
<path class="node" id="node1" d="M1986 2981 c-8 -13 -52 -149 -115 -361 -9 -29 1 -29 -173 -11 -123
13 -149 12 -268 -4 -240 -31 -438 -114 -595 -249 -157 -135 -263 -272 -351
-451 -51 -103 -62 -135 -48 -135 3 0 31 22 62 48 301 256 659 383 975 344 97
-12 225 -47 245 -66 15 -14 15 -11 -54 -256 -58 -208 -59 -210 -44 -210 6 0
53 20 103 44 118 56 221 104 272 126 22 10 76 34 120 55 44 20 99 45 123 56
23 10 61 28 85 38 23 11 91 42 152 69 60 27 114 56 119 65 9 14 -95 177 -509
796 -69 103 -87 122 -99 102z"></path>
<path class="node" id="node2" d="M1285 1346 c-27 -13 -75 -34 -105 -49 -30 -14 -170 -78 -310 -142
-517 -236 -496 -226 -492 -245 6 -26 585 -890 597 -890 7 0 17 19 23 43 6 23
20 74 32 112 12 39 30 97 40 130 35 118 34 116 82 108 24 -5 133 -8 243 -7
209 1 263 9 423 68 231 86 449 279 596 529 55 95 111 216 102 224 -2 2 -40
-24 -83 -58 -201 -160 -381 -253 -588 -304 -175 -43 -441 -29 -572 30 -37 17
-39 27 -18 99 8 28 26 94 40 146 14 52 33 121 42 153 10 35 13 61 7 66 -5 5
-30 0 -59 -13z"></path>
</g>
<g transform="translate(0.000000,300.000000) scale(0.100000,-0.100000)" fill="#FFFFFF" stroke="none">

</g>
</svg>