<?xml version="1.0" ?><svg height="512" preserveAspectRatio="xMidYMid" viewBox="0 0 512 512" width="512" xmlns="http://www.w3.org/2000/svg" xmlns:xlink="http://www.w3.org/1999/xlink"><defs><style>
      .cls-1 {
        fill: #3498db;
      }

      .cls-2 {
        fill: #000;
        opacity: 0.3;
      }

      .cls-2, .cls-3 {
        fill-rule: evenodd;
      }

      .cls-3 {
        fill: #fff;
      }
    </style></defs><g><circle class="cls-1" cx="256" cy="256" r="256"/><path class="cls-2" d="M277.000,140.000 L313.000,188.000 L406.000,170.000 L330.817,265.461 L348.537,306.768 L210.575,507.982 C90.859,486.544 -0.000,381.883 -0.000,256.000 C-0.000,238.197 1.817,220.819 5.276,204.041 L120.350,139.197 C120.350,139.197 135.087,182.752 179.000,215.000 L277.000,140.000 Z"/><path class="cls-3" d="M413.000,159.421 L379.196,169.544 C379.196,169.544 401.949,150.680 405.886,131.976 C386.112,144.105 367.305,148.082 363.205,148.240 C355.075,124.813 251.536,100.712 251.536,205.989 C226.244,212.956 153.127,183.662 120.325,139.091 C118.224,144.304 87.865,189.520 139.411,226.628 C133.900,226.557 127.207,222.765 112.195,219.394 C112.195,272.459 162.599,283.713 162.599,283.713 C162.599,283.713 149.648,286.009 134.552,284.448 C152.070,329.378 192.922,330.094 192.922,330.094 C192.922,330.094 170.999,356.040 100.000,355.602 C208.518,423.648 376.908,369.446 384.547,192.735 C406.022,175.346 413.000,159.421 413.000,159.421 Z"/></g></svg>